<svg id="Layer_1" data-name="Layer 1" xmlns="http://www.w3.org/2000/svg" viewBox="0 0 672.48 375.37"><defs><style>.cls-1{fill:#af5529;}</style></defs><path class="cls-1" d="M430.91,2a91,91,0,0,0-19.8,8.8c-5.7,3.4-18.2,22.3-32.3,48.8-1.4,2.6-4.1,7.5-6,10.7s-3.6,6.3-3.8,6.9c-1.6,4.2-20.4,32.6-26.5,39.9-6.2,7.5-16.1,15.2-25.9,20.1-12,6.1-14.7,4.9-8-3.3,5.6-6.9,8.1-10.7,14.1-22.1,5.5-10.3,5.5-10.5,6-20.7.4-9.3.2-10.6-1.7-13.8-4.8-7.8-15.9-14.6-23.7-14.6-8.9,0-27.3,13-35.5,25-1.9,2.7-4,5-4.8,5s-4.1-2.1-7.5-4.6a90.56,90.56,0,0,0-30-14.4c-19.5-4.9-38.4.1-54.2,14.4-4.5,4.1-8.4,6.8-11,7.5-9.5,2.5-44.9,8.2-62.9,10-5.5.6-16,1.8-23.3,2.7-13.1,1.7-13.3,1.7-16-.3-3.6-2.6-6.4-3.5-11.7-3.5-12.5,0-25.8,12.7-37.3,35.7-8,15.9-8.9,23.6-3.3,30.4l2.8,3.4-1.8,5.3a106,106,0,0,0-3.4,15.1,119.31,119.31,0,0,1-2.7,12.9c-1.7,4.8-.4,7.9,4.5,10.6,4.1,2.3,4.2,2.4,4.2,7.8.1,13,6.4,23.6,16.6,27.9,4.5,2,6.5,2.2,18.2,1.9,12.5-.3,13.4-.2,16.5,2,21.7,15.6,107.8,20.3,149.5,8.3,12.4-3.6,13.8-3.8,23.7-3.3,7.7.3,12.6,0,18.2-1.3,7.4-1.6,8.6-1.6,29,.4,20.7,1.9,41.8,3.5,66.3,5l12,.7,7.5,5.1c10.6,7.1,19.2,11.7,28.5,15,7.3,2.5,9.3,2.8,21.5,2.8,17.7,0,19.4-.9,33-17.2l2.6-3,26.9-.6c36.4-.8,62.5-3.4,74.8-7.4l4.8-1.6,9.7,5.1c35.3,18.3,63.5,20,78.3,4.7,10.9-11.1,16.2-33.4,10.6-44.1-6.2-11.9-23.8-20.9-34.3-17.5-4.9,1.6-12.3,1.9-13.4.5-.6-.6-1.2-4.5-1.3-8.5l-.2-7.3,5.4-.8c9.9-1.5,19.3-8.5,27.7-20.9a26.61,26.61,0,0,1,8.6-7.6c10.4-5.9,18.7-17.7,21.4-30.4,1.3-6.4,1.3-8.3,0-16.8-2.2-13.5-5.7-24.1-8-24.1-1.2,0-21.8,19.8-25.2,24-11.3,14.4-14.1,26.1-8.9,36.4a26.84,26.84,0,0,1,2.5,6.1c0,3.6-16.2,12.5-26.6,14.6-11.5,2.3-15.9-.6-33.6-22.6-8.6-10.7-20.6-32.6-41.4-75.5-20.1-41.3-26.5-50.2-45.3-62.8C467.61,1.23,447-2.87,430.91,2Zm30.2,5.8c10.1,3.3,18.9,8.5,28.8,16.8,11.4,9.6,16.5,17.5,31.2,47.6,3.2,6.6,8.4,17.2,11.7,23.5s9.7,19,14.4,28.2c7.8,15.3,14.4,26,19,31.2a8.26,8.26,0,0,1,1.7,2.7c0,.4,6.7,8,14.8,16.8,15.8,17.2,20.6,24.3,20,30.2-.2,2.1-.9,3.5-1.8,3.7-2.1.4-9.3-5.9-13.1-11.4-3.4-5-6.3-5.7-8-2-1.4,2.9.5,6,7.2,12.1,8.9,8,21.1,10.9,36.3,8.5,7.7-1.2,8.5-1.1,13,.8,14.3,6.4,19.3,16.6,15.2,31.7-4.7,17.6-13.5,24.6-32.1,25.3-9.4.4-10.7.2-21-3.3-12.7-4.2-29.8-12.3-40.1-18.9-4.4-2.9-7.8-4.4-8.8-4-1.8.7-2.1,4.5-.5,6.1,2.7,2.7.2,4-8.8,4.7-4.8.3-12.8,1.1-17.8,1.7-17.9,2-64.9,3.9-66.2,2.6-.9-.9-.9-2.5-.2-6.2,2.6-12.9-5.3-25.7-20.6-33.7l-6.2-3.2-5.8,1.8c-12.2,3.9-22.1.2-35.3-13.1-6.9-7-8.8-8.4-11-8.1-5.3.6-4,3.6,6.1,13.3,12,11.8,21.2,16.6,31.8,16.8,4.8.1,7.7-.4,10.2-1.7l3.4-1.9,5.4,3.5c6.6,4.2,13.4,11.7,15,16.5,3.7,11.4-6.9,31.6-18.8,35.8-17.7,6.1-37.6.7-60.8-16.6-7.1-5.4-14.8-11.3-16.9-13.3-4.8-4.3-8.6-4.8-8.6-1.1a5,5,0,0,0,2.5,4.1c1.4.9,2.5,2.2,2.5,2.9,0,1.6-3.5,2.9-5,2-1.3-.8-27.8-3.2-52.7-4.7-15.4-1-19.3-1.5-19.3-2.6,0-.8,2.6-4,5.8-7.1,8.9-8.6,15.7-24.3,18.7-42.6,2.4-14.5,1.6-27.1-2.6-40-3.2-9.9-.7-12.7,14.1-16.1,21.5-4.9,39.3-20.4,57.4-50.2,3.1-5.1,5.6-9.5,5.6-9.8a48.59,48.59,0,0,1,3.6-6.1c1.9-3,5.7-9.9,8.3-15.2,5.3-10.7,18.8-33.5,23.4-39.6a48.65,48.65,0,0,1,17.6-14.9c5.8-2.9,9.2-4,17.6-6C444.91,4.53,454.71,5.73,461.11,7.83Zm-146.6,66.1c6.6,4.6,8.7,8.7,8.1,16.3-1.1,15.9-18.2,44-39.9,65.7-11.9,11.9-13.1,14-8.5,15.4,1.7.5,3-.4,6.6-4.5,3.1-3.5,5-4.8,5.9-4.3,3.4,2.3,4.6,33.5,1.7,45.7-5.6,23.5-17.4,39.6-32.6,44.6-10.7,3.4-30.9,3.4-38.6,0-7.2-3.2-8.8-2.7-8.5,2.6.4,4.9,1.1,4.5-14.3,7-9.1,1.5-17.3,1.8-47.5,1.8-40,0-44.7-.5-67.5-6.6-12.3-3.3-15.5-4.7-15.5-6.5,0-1.3,5.9-4.4,8.5-4.4,4.3,0,31.8-15.6,32.3-18.4.9-4.6-4.1-5.9-8.5-2.2-3.6,3-16.3,10-27.8,15.2-16.3,7.5-33.1,9.5-41,5.1-7.4-4.2-14.6-18-11.2-21.4,1.5-1.5,2.1-1.4,7.4,1.2,5.5,2.8,6.4,2.9,19.8,3,15.7,0,21.6-1.5,38-9.7,10.5-5.4,14.5-8.4,14.5-11.4,0-3.7-3.6-5.1-6.9-2.5-22,17.4-45.8,21.4-70.4,11.9-10.3-3.9-11.4-5.6-9.8-14.6.7-3.7,1.8-10.5,2.6-15.1s1.9-8.9,2.4-9.4,4.9-1.1,9.5-1.1c9.5-.1,13.2-1.9,11-5.4-.9-1.4-2.7-1.7-10.8-1.7-9.5,0-9.8-.1-12.2-2.8-2.8-3.3-2.9-5-.8-12.5,3-10.5,9.2-21.3,18.3-32.1,12.2-14.5,23.1-14.8,35.3-1,4.9,5.6,5.6,6.1,7.6,5q4.2-2.25,0-6.9c-2.3-2.3-2.3-2.4-.4-3.8,1.2-.8,4.3-1.4,7.5-1.4,11.6,0,56.6-6.3,82.6-11.6,6.6-1.3,13.6-2.4,15.6-2.4,7.4,0,12.5-3.4,9.8-6.6-.8-1-2.3-1.2-4.9-.8-4.5.7-6-.9-3.5-3.6s18.6-8.8,26.8-10.2q18.6-3.3,43.7,12.5c10.3,6.5,11.2,7.6,8.2,11.6-2.6,3.6-2.9,6.9-.6,7.8s4.5-.8,7.1-5.6c3.2-6.1,8.1-12.7,14.8-19.9C292.11,71.13,304.31,67,314.51,73.93Zm323.2,92.2c.2,1.1-2.5,4.6-7.5,9.4-6.7,6.7-8.7,8.1-14.6,10-8,2.6-11.5,2.8-14.5.6-4.6-3.2-2.3-6.4,4.7-6.4,8.6,0,15.2-3.4,26.5-13.4C635.51,163.43,637.21,163.43,637.71,166.13Zm-347.8-75.4c-5.6,3-14.3,11.7-20.5,20.4-1.1,1.6-2.9,4-4.1,5.5-5.5,6.9-5.6,9.3-.4,12.6,4.5,2.8,4.5,4.7-.1,7.1-2.3,1.1-2.9,2.1-2.9,4.6,0,4.7,7.2,16.8,10.1,16.8,1,0,18.6-20.2,23.8-27.3,11.7-16,13.5-30.4,4.9-38.4C297.31,88.93,294,88.43,289.91,90.73Zm-244.3,47.1c-13.7,8.2-19.8,16.9-12.4,17.7,5.2.6,26.7-14.5,26.7-18.8S54.11,132.83,45.61,137.83ZM205.71,152c-11.7,10.8-23.4,11-35.3.7-4.9-4.2-6.4-4.7-8.3-2.8-3.5,3.5,1.3,8.9,12.6,14.5,10.6,5.2,20.2,4.1,31.4-3.4,10.9-7.2,15-14.4,8.1-14.3C212.31,146.83,209.71,148.43,205.71,152Z"/><path class="cls-1" d="M24,366.18a31.87,31.87,0,0,1-6.9-10.41,31.33,31.33,0,0,1,6.9-34,31.32,31.32,0,0,1,34.06-6.9,30.49,30.49,0,0,1,10.37,6.9,3.14,3.14,0,0,1,0,4.44,3.14,3.14,0,0,1-4.44,0,24.19,24.19,0,0,0-17.75-7.34,24.19,24.19,0,0,0-17.76,7.34,25,25,0,0,0,0,35.51,24.12,24.12,0,0,0,17.76,7.38A24.11,24.11,0,0,0,64,361.7a3.14,3.14,0,0,1,4.44,0,3.19,3.19,0,0,1,0,4.48,31.49,31.49,0,0,1-34,6.9A31.87,31.87,0,0,1,24,366.18Z"/><path class="cls-1" d="M217.3,370.88a3.18,3.18,0,0,1-1.54,4.18,3,3,0,0,1-1.32.31,2.92,2.92,0,0,1-2.86-1.85L206.27,362H170.63l-5.32,11.56a3,3,0,0,1-1.76,1.63,3.15,3.15,0,0,1-4-4.27l26-56.69a2.9,2.9,0,0,1,2.85-1.84,3,3,0,0,1,2.9,1.84Zm-13.89-15.2-15-32.61-14.94,32.61Z"/><path class="cls-1" d="M310.72,375.37a3.16,3.16,0,0,1-3.17-3.17V315.51a3.17,3.17,0,0,1,5.71-1.89l27.38,37.49L368,313.62a3.18,3.18,0,0,1,5.71,1.89V372.2a3.17,3.17,0,0,1-6.33,0V325.14l-24.21,33.17a3,3,0,0,1-2.55,1.32,3,3,0,0,1-2.55-1.32l-24.25-33.17V372.2a3,3,0,0,1-.93,2.24A3,3,0,0,1,310.72,375.37Z"/><path class="cls-1" d="M466.58,375.37a3.16,3.16,0,0,1-3.16-3.17V315.51a3.14,3.14,0,0,1,3.16-3.16h45.66a3.14,3.14,0,0,1,3.16,3.16,3,3,0,0,1-.92,2.2,3.06,3.06,0,0,1-2.24.92H469.7v22.06h35.46a3.17,3.17,0,1,1,0,6.33H469.7v22.06h42.54a3.06,3.06,0,0,1,2.24.92,3.14,3.14,0,0,1,0,4.44,3,3,0,0,1-2.24.93Z"/><path class="cls-1" d="M608.25,375.37a3.16,3.16,0,0,1-3.16-3.17V315.51a3.14,3.14,0,0,1,5.36-2.24,3.07,3.07,0,0,1,.92,2.24v53.57h42.54a3.06,3.06,0,0,1,2.24.92,3.14,3.14,0,0,1,0,4.44,3,3,0,0,1-2.24.93Z"/></svg>